<?xml version="1.0" encoding="utf-8"?>
<!-- Generator: Adobe Illustrator 19.1.0, SVG Export Plug-In . SVG Version: 6.00 Build 0)  -->
<svg version="1.1" id="Layer_1" xmlns="http://www.w3.org/2000/svg" xmlns:xlink="http://www.w3.org/1999/xlink" x="0px" y="0px"
	 viewBox="0 0 480 270" style="enable-background:new 0 0 480 270;" xml:space="preserve">
<style type="text/css">
	.st0{fill:#00A99D;}
	.st1{fill:#00B0AA;}
	.st2{fill:#993E3C;}
</style>
<g>
	<polygon class="st0" points="147.7,214 116,266.4 202.8,214 	"/>
	<g>
		<path class="st1" d="M18.2,171.8H6.1c-0.4,0-0.7-0.1-0.9-0.4C5,171.1,5,170.8,5,170.6c0.1-0.3,0.1-0.4,0.2-0.6l25.4-40.8
			c0.8-1.4,1.9-2.1,3.5-2.1h17.8c1.5,0,2.3,0.7,2.3,2.1l2.4,40.8c0,0.1,0,0.3-0.1,0.6c-0.1,0.3-0.3,0.5-0.6,0.8
			c-0.4,0.3-0.7,0.4-1.1,0.4H42.7c-1.4,0-2.1-0.7-2.3-2.2l-0.3-4.5H24.5l-2.9,4.5C20.7,171.1,19.5,171.8,18.2,171.8z M40.3,152.7
			l-0.8-13.3l-8.3,13.3H40.3z"/>
		<path class="st1" d="M89.3,127.1h20.4c4.7,0,8.6,0.6,11.7,1.9c3.1,1.2,5.3,3.3,6.6,6.3c1.3,2.9,1.3,6.6,0.1,11l-1.8,6.5
			c-1.9,6.8-5.6,11.8-11.1,14.9c-5,2.8-11,4.2-18.1,4.2H76.8c-0.5,0-0.8-0.2-1.1-0.5c-0.2-0.3-0.3-0.7-0.2-1.2l11.6-41.3
			c0.1-0.5,0.4-0.9,0.9-1.2C88.4,127.2,88.9,127.1,89.3,127.1z M100.7,139.5l-5.6,19.8h5.8c2,0,3.7-0.5,5.2-1.4
			c1.4-1,2.4-2.3,2.9-4.1l2.5-8.8c0.5-1.7,0.3-3.1-0.6-4.1c-0.9-1-2.4-1.4-4.4-1.4H100.7z"/>
		<path class="st1" d="M185.1,127.1h13.2c0.5,0,0.8,0.2,1.1,0.5c0.2,0.3,0.3,0.7,0.2,1.2l-11.6,41.3c-0.1,0.5-0.4,0.9-0.9,1.2
			c-0.4,0.3-0.9,0.5-1.4,0.5h-13.2c-0.5,0-0.8-0.2-1.1-0.5c-0.2-0.3-0.3-0.7-0.2-1.2l3.8-13.6h-12.8l-3.8,13.6
			c-0.1,0.5-0.4,0.9-0.9,1.2c-0.4,0.3-0.9,0.5-1.4,0.5h-13.2c-0.5,0-0.8-0.2-1.1-0.5c-0.3-0.3-0.3-0.7-0.2-1.2l11.6-41.3
			c0.1-0.5,0.4-0.9,0.9-1.2c0.4-0.3,0.9-0.5,1.4-0.5h13.2c0.5,0,0.8,0.2,1.1,0.5c0.2,0.3,0.3,0.7,0.2,1.2l-3.7,13.1h12.8l3.7-13.1
			c0.1-0.5,0.4-0.9,0.9-1.2C184.2,127.2,184.6,127.1,185.1,127.1z"/>
		<path class="st1" d="M223.5,127.1h20.4c4.7,0,8.6,0.6,11.7,1.9c3.1,1.2,5.3,3.3,6.6,6.3c1.3,2.9,1.3,6.6,0.1,11l-1.8,6.5
			c-1.9,6.8-5.6,11.8-11.1,14.9c-5,2.8-11,4.2-18.1,4.2h-20.4c-0.5,0-0.8-0.2-1.1-0.5c-0.2-0.3-0.3-0.7-0.2-1.2l11.6-41.3
			c0.1-0.5,0.4-0.9,0.9-1.2C222.6,127.2,223,127.1,223.5,127.1z M234.9,139.5l-5.6,19.8h5.8c2,0,3.7-0.5,5.2-1.4
			c1.4-1,2.4-2.3,2.9-4.1l2.5-8.8c0.5-1.7,0.3-3.1-0.6-4.1c-0.9-1-2.4-1.4-4.4-1.4H234.9z"/>
	</g>
	<g>
		<polygon class="st2" points="431,153.3 433.6,153.3 433.3,149.5 		"/>
		<path class="st2" d="M463.2,116.3h-98.4l1.7-1l19.4-11.7h-22.7h-83.6l-3.5-79.2l-0.9-20.8l-10.8,17.8L238.6,64l-12.9,21.3
			c-2.1,3.6-4.3,7.1-6.5,10.6c-1.7,2.6-3.2,5.2-4.7,7.9l-92,2.7c-31.9,1-63.8,2.1-95.7,3.3c0,0,0,0,0,0c31.9,1.2,63.8,2.4,95.7,3.3
			l95.7,2.8l3.1,0.1l2.2-3.1c2.4-3.4,4.6-6.9,6.7-10.5c2.1-3.6,4.2-7.2,6.4-10.7l12.9-21.3l15-24.8l2.8,64.4l0.3,6h6h66.9l-0.2,0.1
			l-67.7,40.9l-3.2,1.9l0.2,3.7l1,23.4l2,46.6l-46.5-42.4l-1.8-1.6l-2.4,0l-117.3,6.3l114.8,6.3l55.9,51l11.2,10.2l-0.7-15.2
			l-2.7-61.3h160.3c8.6,0,17.6-7,20-15.6l10.9-38.7C476.8,123.3,471.8,116.3,463.2,116.3z M324,158.4c0,0.1-0.1,0.1-0.2,0.2
			c-0.1,0.1-0.2,0.1-0.3,0.1h-3.4c-0.4,0-0.6-0.2-0.6-0.6l-0.1-1.3h-4.4l-0.8,1.3c-0.3,0.4-0.6,0.6-1,0.6h-3.4c-0.1,0-0.2,0-0.2-0.1
			c-0.1-0.1-0.1-0.2-0.1-0.2c0-0.1,0-0.1,0.1-0.2l7.2-11.6c0.2-0.4,0.6-0.6,1-0.6h5c0.4,0,0.6,0.2,0.6,0.6l0.7,11.6
			C324,158.3,324,158.3,324,158.4z M342.7,158.2c0,0.1-0.1,0.2-0.2,0.3c-0.1,0.1-0.3,0.1-0.4,0.1h-3.3c-0.1,0-0.2,0-0.3-0.1
			c-0.1-0.1-0.1-0.2,0-0.3l1.6-5.6l-2.1,2.6c-0.1,0.1-0.3,0.3-0.4,0.3c-0.2,0.1-0.3,0.1-0.5,0.1h-1.2c-0.2,0-0.4-0.1-0.5-0.2
			c-0.1-0.1-0.2-0.2-0.2-0.3l-0.6-2.6l-1.6,5.6c0,0.1-0.1,0.2-0.2,0.3c-0.1,0.1-0.3,0.1-0.4,0.1h-3.3c-0.1,0-0.2,0-0.3-0.1
			c-0.1-0.1-0.1-0.2,0-0.3l3.3-11.7c0-0.1,0.1-0.2,0.2-0.3c0.1-0.1,0.3-0.1,0.4-0.1h3.3c0.3,0,0.6,0.2,0.6,0.5l1.2,4.3l3.6-4.3
			c0.3-0.3,0.6-0.5,0.9-0.5h3.3c0.1,0,0.2,0,0.3,0.1c0.1,0.1,0.1,0.2,0,0.3L342.7,158.2z M363.5,149.1c0,0.1-0.1,0.2-0.2,0.3
			c-0.1,0.1-0.3,0.1-0.4,0.1h-7l-0.3,1.1h6.1c0.1,0,0.2,0,0.3,0.1c0.1,0.1,0.1,0.2,0,0.3l-0.7,2.4c0,0.1-0.1,0.2-0.2,0.3
			c-0.1,0.1-0.3,0.1-0.4,0.1h-6.1l-0.3,1.1h7.2c0.1,0,0.2,0,0.3,0.1c0.1,0.1,0.1,0.2,0,0.3l-0.7,2.6c0,0.1-0.1,0.2-0.2,0.3
			c-0.1,0.1-0.3,0.1-0.4,0.1H349c-0.1,0-0.2,0-0.3-0.1c-0.1-0.1-0.1-0.2,0-0.3l3.3-11.7c0-0.1,0.1-0.2,0.2-0.3
			c0.1-0.1,0.3-0.1,0.4-0.1h11.3c0.1,0,0.2,0,0.3,0.1c0.1,0.1,0.1,0.2,0,0.3L363.5,149.1z M382.8,150.4c-0.5,1.6-1.4,2.8-2.9,3.6
			l1.1,4.2c0,0,0,0.1,0,0.2c0,0.1-0.1,0.2-0.2,0.2c-0.1,0.1-0.2,0.1-0.3,0.1h-4.1c-0.4,0-0.6-0.2-0.6-0.5l-0.6-3.6h-1.5l-1,3.6
			c0,0.1-0.1,0.2-0.2,0.3c-0.1,0.1-0.3,0.1-0.4,0.1H368c-0.1,0-0.2,0-0.3-0.1c-0.1-0.1-0.1-0.2,0-0.3l3.3-11.7
			c0-0.1,0.1-0.2,0.2-0.3c0.1-0.1,0.3-0.1,0.4-0.1h7.1c1.7,0,2.9,0.4,3.6,1.2S383.2,149.1,382.8,150.4z M401.5,149.3
			c0,0.1-0.1,0.2-0.2,0.3c-0.1,0.1-0.3,0.1-0.4,0.1h-3.3l-1.5,5.3h3.3c0.1,0,0.2,0,0.3,0.1c0.1,0.1,0.1,0.2,0,0.3l-0.8,2.7
			c0,0.1-0.1,0.2-0.2,0.3c-0.1,0.1-0.3,0.1-0.4,0.1h-11.5c-0.1,0-0.2,0-0.3-0.1c-0.1-0.1-0.1-0.2,0-0.3l0.8-2.7
			c0-0.1,0.1-0.2,0.2-0.3c0.1-0.1,0.2-0.1,0.4-0.1h3.3l1.5-5.3h-3.3c-0.1,0-0.2,0-0.3-0.1c-0.1-0.1-0.1-0.2,0-0.3l0.8-2.7
			c0-0.1,0.1-0.2,0.2-0.3c0.1-0.1,0.3-0.1,0.4-0.1H402c0.1,0,0.2,0,0.3,0.1c0.1,0.1,0.1,0.2,0,0.3L401.5,149.3z M420.8,150.6
			c0,0.1-0.1,0.2-0.2,0.3c-0.1,0.1-0.2,0.1-0.3,0.1h-3.9c-0.3,0-0.4-0.2-0.5-0.5c-0.1-0.3-0.2-0.5-0.4-0.7c-0.2-0.2-0.6-0.2-1.1-0.2
			c-0.5,0-1,0.1-1.4,0.4c-0.4,0.3-0.7,0.6-0.8,1.1l-0.8,2.7c-0.1,0.5-0.1,0.8,0.2,1.1c0.3,0.3,0.7,0.4,1.2,0.4c0.5,0,1-0.1,1.2-0.2
			s0.6-0.4,0.8-0.7c0.2-0.3,0.5-0.5,0.8-0.5h3.9c0.1,0,0.2,0,0.2,0.1c0.1,0.1,0.1,0.2,0,0.3c-0.3,1.1-1.1,2.1-2.4,3
			c-0.7,0.4-1.5,0.8-2.4,1.1s-2,0.4-3.2,0.4s-2.2-0.2-3.1-0.5c-0.9-0.4-1.5-0.9-1.9-1.8s-0.4-1.8-0.1-3l0.6-2.1
			c0.3-1.2,0.9-2.2,1.8-3c1.6-1.5,3.7-2.3,6.5-2.3c1.1,0,2.1,0.1,2.9,0.4c0.8,0.3,1.4,0.6,1.8,1.1
			C420.9,148.5,421.1,149.5,420.8,150.6z M438.1,158.4c0,0.1-0.1,0.1-0.2,0.2c-0.1,0.1-0.2,0.1-0.3,0.1h-3.4c-0.4,0-0.6-0.2-0.6-0.6
			l-0.1-1.3h-4.4l-0.8,1.3c-0.3,0.4-0.6,0.6-1,0.6h-3.4c-0.1,0-0.2,0-0.2-0.1c-0.1-0.1-0.1-0.2-0.1-0.2c0-0.1,0-0.1,0.1-0.2
			l7.2-11.6c0.2-0.4,0.6-0.6,1-0.6h5c0.4,0,0.6,0.2,0.6,0.6l0.7,11.6C438.2,158.3,438.2,158.3,438.1,158.4z"/>
		<polygon class="st2" points="316.8,153.3 319.4,153.3 319.2,149.5 		"/>
		<path class="st2" d="M377.3,149.4h-2.3l-0.5,1.9h2.3c0.3,0,0.5-0.1,0.7-0.3c0.2-0.2,0.3-0.4,0.4-0.7c0.1-0.3,0.1-0.5,0-0.7
			C377.8,149.5,377.6,149.4,377.3,149.4z"/>
	</g>
</g>
</svg>
