<?xml version="1.0" encoding="utf-8"?>
<!-- Generator: Adobe Illustrator 19.1.0, SVG Export Plug-In . SVG Version: 6.00 Build 0)  -->
<svg version="1.1" id="Layer_1" xmlns="http://www.w3.org/2000/svg" xmlns:xlink="http://www.w3.org/1999/xlink" x="0px" y="0px"
	 viewBox="0 0 100 234.7" style="enable-background:new 0 0 100 234.7;" xml:space="preserve">
<style type="text/css">
	.st0{fill:#FFFFFF;}
	.st1{fill:#1B75BB;}
	.st2{fill:#EC1C24;}
</style>
<path class="st0" d="M49.9,0C22.4,0,0,22.4,0,49.9v151.7l50,33.1l50-33.2V50C100,22.4,77.5,0,49.9,0z"/>
<path class="st1" d="M17.5,98.1h5.6l6.8,18.6h-6l-0.8-2.7h-5.9l-0.8,2.7h-5.8L17.5,98.1z M22,110.1l-1.7-5.7h-0.1l-1.8,5.7H22z
	 M31.2,98.1h9.4c6.2,0,8.4,4.6,8.4,9.3c0,5.7-3,9.3-9.5,9.3h-8.3V98.1z M36.9,112h2.2c3.6,0,4.1-2.9,4.1-4.6c0-1.2-0.4-4.4-4.5-4.4
	h-1.8V112z M51.5,98.1h5.7v6.5h5.4v-6.5h5.7v18.6h-5.7v-7.4h-5.4v7.4h-5.7V98.1z M71.3,98.1h9.4c6.2,0,8.4,4.6,8.4,9.3
	c0,5.7-3,9.3-9.5,9.3h-8.3V98.1z M77,112h2.2c3.6,0,4.1-2.9,4.1-4.6c0-1.2-0.4-4.4-4.5-4.4H77V112z M49.9,10L49.9,10
	C27.9,10,10,27.9,10,49.9v40h80V50C90,27.9,72,10,49.9,10z M54.6,28.7l1.5,15.9H45.8L54.6,28.7z M48,67.3l9.6-6l1.5,15.7L48,67.3z
	 M57.4,58.6l-11.2,7L28,76.9l10.2-18.3l-13-11.3h19.2h11.9h19.2L57.4,58.6z"/>
<path class="st2" d="M34.8,125.9h1.6l1.9,5.1h-1.6l-0.2-0.7h-1.6l-0.2,0.7h-1.6L34.8,125.9z M36.1,129.3l-0.5-1.6h0l-0.5,1.6H36.1z
	 M38.6,125.9h2.3l0.7,3h0l0.7-3h2.3v5.1h-1.5v-3.3h0l-0.9,3.3H41l-0.9-3.3h0v3.3h-1.5V125.9z M45.4,125.9h4.3v1.3H47v0.6h2.4v1.2H47
	v0.6h2.8v1.3h-4.3V125.9z M50.5,125.9h3c0.9,0,1.7,0.5,1.7,1.5c0,0.5-0.2,1.1-0.8,1.3c0.4,0.2,0.7,0.6,0.8,1.3c0,0.3,0,0.9,0.2,1.1
	h-1.6c-0.1-0.3-0.1-0.5-0.1-0.8c0-0.5-0.1-1-0.7-1h-0.8v1.8h-1.6V125.9z M52.1,128.2h0.8c0.3,0,0.7,0,0.7-0.5c0-0.3-0.2-0.5-0.8-0.5
	h-0.7V128.2z M55.9,125.9h1.6v5.1h-1.6V125.9z M61.5,127.9c0-0.2-0.2-0.8-0.8-0.8c-0.7,0-1,0.7-1,1.4c0,0.7,0.2,1.4,1,1.4
	c0.5,0,0.7-0.4,0.8-0.9h1.6c0,1-0.8,2.1-2.4,2.1c-1.7,0-2.6-1.2-2.6-2.7c0-1.6,1-2.7,2.6-2.7c1.4,0,2.2,0.7,2.3,2H61.5z M65.2,125.9
	h1.5l1.9,5.1H67l-0.2-0.7h-1.6l-0.2,0.7h-1.6L65.2,125.9z M66.4,129.3l-0.5-1.6h0l-0.5,1.6H66.4z M90,196.1v-71.6H74v82.2L90,196.1z
	 M26,206.8v-82.3H10v71.7L26,206.8z M50,222.7l8-5.3v-79.5H42v79.5L50,222.7z"/>
</svg>
